<?xml version="1.0" standalone="no"?>
<!DOCTYPE svg PUBLIC "-//W3C//DTD SVG 20010904//EN"
 "http://www.w3.org/TR/2001/REC-SVG-20010904/DTD/svg10.dtd">
<svg version="1.0" xmlns="http://www.w3.org/2000/svg"
 width="1048.000000pt" height="1280.000000pt" viewBox="0 0 1048.000000 1280.000000"
 preserveAspectRatio="xMidYMid meet">
<metadata>
Created by potrace 1.15, written by Peter Selinger 2001-2017
</metadata>
<g transform="translate(0.000000,1280.000000) scale(0.100000,-0.100000)"
fill="#000000" stroke="none">
<path d="M4555 12791 l-70 -6 -57 -105 c-156 -284 -264 -613 -313 -944 -52
-358 -29 -833 53 -1071 54 -156 129 -267 328 -487 204 -223 214 -238 214 -300
0 -47 -8 -68 -66 -173 -70 -127 -202 -335 -213 -335 -3 0 -53 14 -111 30 -293
84 -579 97 -921 41 -63 -10 -115 -18 -116 -17 -2 1 -8 37 -13 80 -20 139 -69
216 -165 262 -40 19 -66 24 -136 24 -154 0 -270 -50 -366 -157 -164 -185 -245
-329 -257 -456 -6 -56 -5 -54 -302 -387 -214 -240 -271 -309 -363 -445 -92
-136 -118 -184 -206 -380 -42 -93 -80 -174 -85 -180 -18 -22 -141 -368 -183
-515 -87 -302 -134 -553 -167 -900 -20 -203 -21 -255 -14 -535 17 -653 12
-793 -31 -920 -41 -124 -116 -225 -317 -431 -195 -201 -245 -267 -281 -382
-43 -133 -46 -211 -38 -1002 4 -347 2 -358 -95 -646 -37 -111 -68 -223 -74
-266 -9 -75 0 -179 20 -232 29 -77 9 -147 -113 -395 -49 -97 -89 -193 -93
-218 -9 -58 9 -135 48 -214 38 -77 170 -212 279 -286 l76 -52 174 33 c479 93
631 148 768 279 38 36 51 56 51 77 0 16 -4 32 -10 35 -5 3 -10 23 -10 43 0 57
-45 330 -84 512 -33 153 -80 345 -142 581 l-25 96 26 133 c32 160 82 319 182
580 101 262 156 432 187 570 28 128 60 366 50 381 -7 11 30 60 156 204 113
128 183 222 215 286 20 38 31 47 67 58 125 37 232 125 419 342 60 70 130 146
156 168 48 43 128 85 179 96 l31 6 21 -73 c62 -209 50 -501 -30 -741 -68 -203
-142 -331 -243 -421 -76 -67 -135 -154 -143 -208 -2 -21 -9 -41 -13 -44 -12
-7 -12 -111 0 -118 4 -3 11 -32 15 -64 6 -54 31 -133 120 -374 44 -119 80
-294 150 -716 30 -180 73 -412 96 -517 88 -410 90 -541 11 -1020 -63 -386 -62
-534 4 -673 44 -94 141 -192 238 -241 61 -31 70 -33 129 -27 98 11 241 36 265
48 12 6 62 9 120 6 79 -3 107 -9 148 -29 l50 -25 43 33 c51 39 115 59 231 73
264 33 339 109 329 335 -3 85 -7 99 -49 186 -28 56 -89 151 -153 238 -59 79
-117 160 -128 180 -11 20 -24 41 -28 46 -4 6 -10 107 -13 225 -2 118 -9 235
-15 260 -6 25 -16 86 -22 135 -7 50 -45 259 -85 465 -103 527 -130 767 -105
931 35 231 83 343 195 454 38 39 91 81 116 94 l46 24 45 -31 c83 -57 165 -158
223 -275 99 -196 134 -343 215 -897 67 -459 67 -456 111 -492 64 -52 289 -125
489 -159 119 -21 455 -18 570 4 52 10 104 22 115 27 99 42 146 66 187 98 57
43 128 143 128 180 0 34 -51 111 -100 151 -22 18 -75 48 -118 68 -346 160
-352 164 -352 226 0 65 -27 231 -51 311 -12 39 -53 157 -91 261 -101 274 -126
418 -97 557 6 29 12 54 14 56 2 2 188 -35 405 -81 128 -28 232 -45 330 -55 80
-8 309 -8 370 0 224 29 294 50 558 168 236 105 310 123 462 117 137 -5 220
-28 309 -88 162 -108 267 -339 318 -694 16 -119 18 -196 15 -895 -2 -506 1
-802 8 -875 11 -109 49 -271 95 -409 50 -148 49 -196 -9 -393 -29 -97 -43
-167 -53 -250 -11 -100 44 -191 143 -238 143 -68 374 -113 519 -101 142 11
310 34 441 60 71 14 165 32 209 40 44 8 125 24 180 35 55 12 112 21 127 21 39
0 58 25 58 74 0 23 5 47 11 53 18 18 -17 216 -50 288 -59 127 -144 205 -378
345 -67 40 -140 89 -163 109 l-42 36 23 80 c21 71 24 99 23 245 0 111 -8 218
-22 325 -51 372 -45 450 83 1033 20 90 43 207 51 260 18 116 28 546 14 612
-14 62 -32 373 -36 630 -4 176 -1 246 17 390 30 245 33 304 21 379 -6 36 -20
134 -32 217 -38 288 -125 581 -325 1094 -129 332 -192 508 -235 658 -31 110
-32 114 -16 153 25 63 74 133 183 264 126 152 146 182 232 346 134 257 226
495 274 709 18 80 21 128 22 300 0 239 -6 268 -91 449 -30 62 -54 117 -54 121
0 4 85 62 188 129 449 288 640 467 775 728 25 49 57 122 71 163 28 85 66 286
66 352 0 42 -33 218 -65 348 -40 167 -39 296 9 660 36 270 50 429 43 485 -24
208 -55 313 -123 418 l-45 70 -65 -6 c-97 -7 -122 -28 -247 -196 -23 -32 -78
-73 -208 -156 -345 -220 -507 -357 -657 -555 -23 -30 -92 -102 -153 -160 -61
-58 -194 -197 -296 -310 -101 -113 -229 -246 -283 -297 l-100 -91 -62 19
c-362 112 -637 171 -938 200 -141 13 -539 19 -546 8 -3 -5 -35 -9 -72 -9 -37
0 -112 -7 -167 -15 -128 -18 -284 -20 -289 -2 -2 6 -8 48 -14 92 -6 44 -25
141 -43 215 l-32 135 -111 115 c-61 63 -167 185 -235 270 -285 354 -479 562
-621 662 -202 143 -405 207 -605 189z"/>
</g>
</svg>
